gui_paths_subject3_squats1_v3
version=1
nRows=9
nColumns=56
inDegrees=no
endheader
time	pelvis_tilt	pelvis_list	pelvis_rotation	pelvis_tx	pelvis_ty	pelvis_tz	hip_flexion_r	hip_adduction_r	hip_rotation_r	knee_angle_r	ankle_angle_r	subtalar_angle_r	mtp_angle_r	hip_flexion_l	hip_adduction_l	hip_rotation_l	knee_angle_l	ankle_angle_l	subtalar_angle_l	mtp_angle_l	lumbar_extension	lumbar_bending	lumbar_rotation	arm_flex_r	arm_add_r	arm_rot_r	elbow_flex_r	pro_sup_r	wrist_flex_r	wrist_dev_r	arm_flex_l	arm_add_l	arm_rot_l	elbow_flex_l	pro_sup_l	wrist_flex_l	wrist_dev_l	knee_angle_r_beta	knee_angle_l_beta	/forceset/M0_r/activation	/forceset/M1_r/activation	/forceset/M2_r/activation	/forceset/M3_r/activation	/forceset/M4_r/activation	/forceset/M5_r/activation	/forceset/M6_r/activation	/forceset/M7_r/activation	/forceset/M0_l/activation	/forceset/M1_l/activation	/forceset/M2_l/activation	/forceset/M3_l/activation	/forceset/M4_l/activation	/forceset/M5_l/activation	/forceset/M6_l/activation	/forceset/M7_l/activation
2.60000000	-0.24663964	0.05101103	-0.06472385	-0.16784307	0.91326101	-0.62166128	0.33507894	-0.23668597	-0.35250907	0.29153923	0.13783854	-0.01231940	0.00000720	0.29685481	-0.14671274	-0.39797131	0.23537850	0.11677931	0.00345376	-0.00001527	0.19938753	-0.05662132	-0.07012362	-0.02632397	-0.44894195	0.46750535	2.37747680	1.01732697	0.00045376	-0.00005525	-0.17771223	-0.39156854	0.32949077	2.43016636	1.02170532	0.00085960	0.00030937	0.29153923	0.23537850	0.00000003	0.06857491	0.13763376	0.08055967	0.01390989	0.03122718	0.02696150	0.01264634	0.00000009	0.00000001	0.07439618	0.08340474	0.00000000	0.16547480	0.06655654	0.06994299
2.60989011	-0.25452528	0.05174167	-0.06383992	-0.17029937	0.91227445	-0.62201056	0.35414120	-0.23999467	-0.35118785	0.30711082	0.13987087	-0.01231940	0.00000720	0.31685778	-0.15016069	-0.39831927	0.25366065	0.12068942	0.00345376	-0.00001527	0.19841949	-0.05675832	-0.07081887	-0.01772468	-0.44942725	0.46980458	2.38080664	1.01734493	0.00045376	-0.00005525	-0.16889189	-0.39465714	0.33355192	2.43296868	1.02170393	0.00085960	0.00030937	0.30711082	0.25366065	0.00000000	0.07091872	0.13429386	0.07787670	0.01804119	0.00871490	0.02528876	0.00000020	0.00000005	0.00000000	0.07178164	0.08654766	0.00000000	0.15652076	0.06144473	0.06896267
2.61978022	-0.26170626	0.05191954	-0.06313660	-0.17287160	0.91121596	-0.62232445	0.37277243	-0.24264388	-0.34890596	0.32314111	0.14201045	-0.01231940	0.00000720	0.33649316	-0.15426259	-0.39769191	0.27253011	0.12455910	0.00345376	-0.00001527	0.19599326	-0.05640104	-0.07146029	-0.00861778	-0.44968211	0.47195439	2.38418088	1.01732982	0.00045376	-0.00005525	-0.15939893	-0.39787559	0.33778223	2.43587745	1.02170249	0.00085960	0.00030937	0.32314111	0.27253011	0.00000019	0.08809852	0.12263999	0.07165088	0.02722791	0.00000000	0.03971059	0.02797282	0.00000044	0.00000001	0.06955006	0.08939936	0.00000000	0.15016558	0.05759799	0.07235945
2.62967033	-0.26867284	0.05194977	-0.06247832	-0.17557683	0.91002351	-0.62264655	0.39183128	-0.24518802	-0.34590314	0.34015309	0.14452496	-0.01231940	0.00000720	0.35643637	-0.15853789	-0.39562037	0.29210172	0.12821909	0.00345376	-0.00001527	0.19268598	-0.05577858	-0.07206251	0.00092053	-0.44992729	0.47433085	2.38767257	1.01732177	0.00045376	-0.00005525	-0.14958086	-0.40128813	0.34159866	2.43899012	1.02170101	0.00085960	0.00030937	0.34015309	0.29210172	0.01522346	0.10405921	0.12720694	0.06842051	0.03799424	0.00000000	0.04877823	0.05016666	0.00000015	0.00000000	0.06788462	0.09187800	0.00000000	0.14732466	0.05537299	0.08119255
2.63956044	-0.27602346	0.05219435	-0.06182066	-0.17845822	0.90862039	-0.62300162	0.41241736	-0.24814612	-0.34228722	0.35882090	0.14749685	-0.01231940	0.00000720	0.37771648	-0.16275796	-0.39251283	0.31307428	0.13196461	0.00345376	-0.00001527	0.18915157	-0.05516058	-0.07257018	0.01079057	-0.45047069	0.47705663	2.39155590	1.01747315	0.00045376	-0.00005525	-0.13938124	-0.40480700	0.34482892	2.44235061	1.02169947	0.00085960	0.00030937	0.35882090	0.31307428	0.03500926	0.11816497	0.13534201	0.06990419	0.04432565	0.00000000	0.04972590	0.06163971	0.00186220	0.00000001	0.06891908	0.09447199	0.00000000	0.14922368	0.05393189	0.09432033
2.64945055	-0.28365730	0.05263245	-0.06109024	-0.18152079	0.90698931	-0.62337006	0.43442102	-0.25150811	-0.33778825	0.37917791	0.15076277	-0.01231940	0.00000720	0.40020506	-0.16693208	-0.38888678	0.33540527	0.13607286	0.00345376	-0.00001527	0.18524234	-0.05474110	-0.07312887	0.02107042	-0.45123429	0.48001147	2.39594461	1.01731070	0.00045376	-0.00005525	-0.12852831	-0.40835220	0.34774872	2.44608876	1.02169788	0.00085960	0.00030937	0.37917791	0.33540527	0.05448712	0.12688754	0.14487524	0.07120537	0.05105099	0.00000000	0.05002682	0.07131191	0.00671239	0.00000000	0.07391695	0.09744934	0.00000000	0.15700261	0.05278106	0.11111608
2.65934066	-0.29129974	0.05317719	-0.06035153	-0.18475218	0.90513191	-0.62369329	0.45740602	-0.25503702	-0.33197955	0.40100804	0.15431780	-0.01231940	0.00000720	0.42329987	-0.17109219	-0.38481587	0.35858021	0.14057075	0.00345376	-0.00001527	0.18061631	-0.05475825	-0.07393137	0.03224482	-0.45194450	0.48321042	2.40054416	1.01686345	0.00045376	-0.00005525	-0.11715230	-0.41190050	0.35037366	2.45060077	1.02169625	0.00085960	0.00030937	0.40100804	0.35858021	0.07184831	0.13487425	0.15118582	0.07452920	0.05487413	0.00000000	0.04845055	0.08103927	0.01285510	0.00000000	0.08125634	0.10032952	0.00000000	0.17118742	0.05287911	0.13334302
2.66923077	-0.29883387	0.05388372	-0.05989298	-0.18813819	0.90303769	-0.62392507	0.48124505	-0.25857128	-0.32471049	0.42418602	0.15841116	-0.01231940	0.00000720	0.44666948	-0.17526363	-0.38001204	0.38241228	0.14536298	0.00345376	-0.00001527	0.17519959	-0.05532675	-0.07483940	0.04483074	-0.45261805	0.48684055	2.40474808	1.01855550	0.00045376	-0.00005525	-0.10555643	-0.41550698	0.35266349	2.45599903	1.02169457	0.00085960	0.00030937	0.42418602	0.38241228	0.08726956	0.13748602	0.15812644	0.07778769	0.05849189	0.00000000	0.04610850	0.08868568	0.01867694	0.00000000	0.08941153	0.10278303	0.00000000	0.19199241	0.05492504	0.16211963
2.67912088	-0.30651733	0.05469708	-0.05982168	-0.19164658	0.90065886	-0.62409038	0.50624508	-0.26203115	-0.31654326	0.44878643	0.16328580	-0.01231940	0.00000720	0.47078598	-0.17972743	-0.37446470	0.40746323	0.15068459	0.00345376	-0.00001527	0.16956508	-0.05604920	-0.07552821	0.05856943	-0.45349764	0.49102334	2.40918965	1.01798797	0.00045376	-0.00005525	-0.09367983	-0.41946628	0.35516177	2.46179519	1.02169283	0.00085960	0.00030937	0.44878643	0.40746323	0.09868062	0.13839713	0.16174012	0.08275997	0.05892928	0.00000000	0.04193019	0.09573006	0.02397344	0.00000000	0.09808570	0.10496486	0.00000000	0.21983830	0.05877741	0.19718272
